<?xml version="1.0" encoding="UTF-8"?>
<svg xmlns="http://www.w3.org/2000/svg" id="Icons" viewBox="0 0 74 74" width="512" height="512"><path d="M40,30.76a1,1,0,0,1-1-1V3.14a1,1,0,0,1,.323-.737,1.022,1.022,0,0,1,.762-.259,34.635,34.635,0,0,1,19.388,8.02,1,1,0,0,1,.064,1.473l-18.83,18.83A1,1,0,0,1,40,30.76ZM41,4.247v23.1L57.338,11.008A32.608,32.608,0,0,0,41,4.247Z"/><path d="M11.41,60.39a1,1,0,0,1-.755-.344c-.708-.813-1.369-1.645-1.966-2.47A1,1,0,0,1,10.311,56.4c.561.778,1.185,1.561,1.854,2.33a1,1,0,0,1-.755,1.656Z"/><path d="M37,72a34.711,34.711,0,0,1-20.538-6.661,1,1,0,0,1,1.176-1.618A32.72,32.72,0,0,0,37,70a33.059,33.059,0,0,0,20.338-7.008L34.173,39.827A3.969,3.969,0,0,1,33,37V4.25A33.2,33.2,0,0,0,4,37a34.312,34.312,0,0,0,.252,4.138,1,1,0,1,1-1.984.243A36.078,36.078,0,0,1,2,37,35.2,35.2,0,0,1,33.913,2.144,1,1,0,0,1,35,3.14V37a2.013,2.013,0,0,0,.587,1.413l23.95,23.95a1,1,0,0,1-.064,1.473A35.055,35.055,0,0,1,37,72Z"/><path d="M5.961,51.911a1,1,0,0,1-.915-.6c-.405-.916-.775-1.853-1.1-2.786a1,1,0,1,1,1.889-.657c.308.881.657,1.768,1.04,2.633a1,1,0,0,1-.913,1.406Z"/><path d="M63.07,59.83a1,1,0,0,1-.707-.293l-21.83-21.83a1,1,0,0,1,0-1.414l21.83-21.83a1.034,1.034,0,0,1,.751-.292,1,1,0,0,1,.723.357,35.013,35.013,0,0,1,0,44.944,1,1,0,0,1-.723.357ZM42.654,37,62.992,57.337a33.013,33.013,0,0,0,0-40.674Z"/></svg>
