<svg height="410pt" viewBox="-10 0 410 410" width="410pt" xmlns="http://www.w3.org/2000/svg"><path d="m109.074219 222.367188 78.707031 74c3.851562 3.621093 9.851562 3.621093 13.703125 0l78.707031-74c4.023438-3.78125 4.21875-10.109376.4375-14.132813-3.785156-4.023437-10.113281-4.21875-14.136718-.4375l-61.859376 58.15625v-255.953125c0-5.523438-4.476562-10-10-10-5.523437 0-10 4.476562-10 10v255.953125l-61.859374-58.152344c-4.023438-3.785156-10.351563-3.589843-14.136719.433594-3.78125 4.027344-3.585938 10.355469.4375 14.136719zm0 0"/><path d="m339.265625 74.300781h-50.707031c-5.523438 0-10 4.476563-10 10 0 5.523438 4.476562 10 10 10h50.707031c16.5625.019531 29.980469 13.4375 30 30v235.699219c-.019531 16.5625-13.4375 29.980469-30 30h-289.265625c-16.5625-.019531-29.980469-13.4375-30-30v-235.699219c.019531-16.5625 13.4375-29.980469 30-30h50.710938c5.519531 0 10-4.476562 10-10 0-5.523437-4.480469-10-10-10h-50.710938c-27.601562.03125-49.96875 22.398438-50 50v235.699219c.03125 27.601562 22.398438 49.96875 50 50h289.265625c27.601563-.03125 49.96875-22.398438 50-50v-235.699219c-.03125-27.601562-22.398437-49.96875-50-50zm0 0"/></svg>